<?xml version="1.0" encoding="UTF-8" standalone="no"?> <svg id="Layer_1" data-name="Layer 1" xmlns="http://www.w3.org/2000/svg" viewBox="0 0 128 128"><defs><style>.cls-1{fill:#2d3e50;}.cls-2{fill:#1d75b8;}</style></defs><title>b</title><path class="cls-1" d="M40.83,81.96642l.93237-1.879-3.35644-.63112L28.81,77.649l-.68847-.12913-1.01843,3.672-2.58183,9.3377-7.516,8.46277-2.2376,2.51013-1.21926,1.37693a4.61224,4.61224,0,0,0,.11477,6.23952l.17212.17212a4.17829,4.17829,0,0,0,.87494.64548,4.6328,4.6328,0,0,0,5.46491-.6742l8.86443-8.52011,2.86872-2.75395,1.19046-1.14747a3.35259,3.35259,0,0,0,.68855-.918l.43029-.8176,1.99378-3.85843Z"/><path class="cls-1" d="M15.48485,44.87378l1.24789-.459,1.5634-.502.8176-.25817,4.64732-1.4917h.01436l.70282-.22955A45.78144,45.78144,0,0,1,24.55,46.79586c0,.27253-.01436.53071-.02872.78888-.08606,1.60648-.22955,3.18433-.43029,4.69039-.27253,2.13718-.61676,4.10225-.96108,5.76607-.32988,1.66391-.65975,3.01221-.87494,3.87279a8.86,8.86,0,0,0-.25817,3.06955,5.19632,5.19632,0,0,0,.15776.8893A9.19749,9.19749,0,0,0,25.3389,70.348a11.77931,11.77931,0,0,0,2.61055,1.63519,14.13062,14.13062,0,0,0,2.91171.94664c.416.08606.86067.17212,1.31959.25817,1.77868.33,3.5859.61685,5.37885.918.02872,0,.04307.01436.07179.01436a.08609.08609,0,0,1,.05734.01436c.37295.05734.73154.11477,1.10449.18647.459.0717.91792.1434,1.37693.22946,1.99378.33,4.00192.6742,6.01,1.00407.65984.11477,1.30532.21519,1.96507.32988l.47336.07179,1.67818,2.75395,1.879,3.0552,4.174,6.81322,4.83379,7.889a5.741,5.741,0,0,0,4.83379,2.62491,5.6917,5.6917,0,0,0,5.46491-4.10234,5.70475,5.70475,0,0,0-.47336-4.36043L62.47453,74.95238l-1.04714-1.93644L58.91726,68.469l-.87494-1.59212A5.77261,5.77261,0,0,0,55.04447,64.252l-5.10632-1.99378-.86058-.32988-2.94042-1.13311q-.04307-.624-.12913-1.24789c.08606-.459.17212-.90365.2439-1.36266.20074-1.00407.38722-2.0225.55933-3.04084.08606-.459.17212-.97536.27253-1.54913.25817-1.31959.54506-2.85436.76025-4.07362l.43029.34432,4.174,3.39943.02872.02863.73154.58814c.05734.02872.11477.0717.17212.10042a.51219.51219,0,0,0,.12913.05734,1.29647,1.29647,0,0,0,.31552.15776l6.06732,2.32366,7.65953,2.95478a3.73982,3.73982,0,0,0,1.76424.20083,3.50643,3.50643,0,0,0,.98971-6.6411L59.032,47.71387c-.12913-.12913-.24382-.25817-.37295-.38731q-4.13092-4.41063-8.27629-8.79264a23.74183,23.74183,0,0,0-5.68-4.37478.54311.54311,0,0,0-.6742.10042l-4.217,4.26a.57683.57683,0,0,1-.97536-.30116l-1.42-6.68417a.577.577,0,0,0-.41593-.43029,22.33219,22.33219,0,0,0-9.1226-.7459c-.37286.05743-.74581.11477-1.11876.20083a.4187.4187,0,0,0-.12913.02872,19.46617,19.46617,0,0,0-4.4752,1.793c-1.26224.64539-2.53876,1.27651-3.81536,1.922-.60241.3156-1.21926.61676-1.836.93237-.043.01436-.0717.02872-.11469.043-.10042.04307-.18647.08606-.28689.12913l-1.49179.7459-3.22731,1.62084L3.72307,45.39021l-1.4917,1.4917a3.29693,3.29693,0,0,0-.918,2.88308,3.21966,3.21966,0,0,0,.74581,1.57776,3.29069,3.29069,0,0,0,4.633.35859l8.2762-6.6411Z"/><path class="cls-1" d="M41.93447,28.8807a7.05238,7.05238,0,0,0,7.9894-4.088l2.2376-5.19238a7.3948,7.3948,0,0,0,0-5.12068l-.01436-.01427a7.38555,7.38555,0,0,0-5.3645-4.676l-.61685-.14349-.47328-.10042-.05743-.02863-.10033-.01436a7.44512,7.44512,0,0,0-9.00783,6.65546L36.49819,17.205l-.02863,1.52042-.07179,3.08391A7.05738,7.05738,0,0,0,41.93447,28.8807Z"/><polygon class="cls-2" points="122.044 83.774 80.375 83.774 80.375 108.99 41.748 108.99 35.035 108.99 35.035 109.477 35.035 118.672 90.057 118.672 90.057 93.456 122.044 93.456 126.734 88.622 122.044 83.774"/></svg>